<?xml version="1.0" encoding="iso-8859-1"?>
<!-- Generator: Adobe Illustrator 17.1.0, SVG Export Plug-In . SVG Version: 6.00 Build 0)  -->
<!DOCTYPE svg PUBLIC "-//W3C//DTD SVG 1.1//EN" "http://www.w3.org/Graphics/SVG/1.1/DTD/svg11.dtd">
<svg height="30" width="20" version="1.1" id="Capa_1" xmlns="http://www.w3.org/2000/svg" xmlns:xlink="http://www.w3.org/1999/xlink" x="0px" y="0px"
	 viewBox="0 0 422.754 422.754" style="enable-background:new 0 0 422.754 422.754;" xml:space="preserve">
<g>
	<path d="M349.482,67.188c-10.072-16.498-38.019-29.732-74.715-36.884v-19.74C274.767,4.739,270.029,0,264.203,0h-105.66
		c-5.825,0-10.563,4.739-10.563,10.563v19.655c-36.863,7.122-64.98,20.368-75.128,36.896c-1.827,2.976-2.691,7.731-0.502,11.644
		c1.078,1.927,3.8,5.16,9.915,5.16H340.23c6.246,0,9.061-2.681,10.322-4.929C353.279,74.13,350.422,68.727,349.482,67.188z"/>
	<path d="M330.105,114.919H92.642c-4.06,0-7.795,1.604-10.519,4.517c-2.723,2.913-4.072,6.747-3.8,10.796l18.659,277.879
		c0.542,8.074,7.566,14.643,15.659,14.643h197.463c8.093,0,15.117-6.569,15.658-14.643l18.66-277.879
		c0.272-4.05-1.077-7.884-3.8-10.796C337.9,116.523,334.164,114.919,330.105,114.919z M294.237,316.993H128.51l-7.996-119.077
		h181.719L294.237,316.993z"/>
</g>
<g>
</g>
<g>
</g>
<g>
</g>
<g>
</g>
<g>
</g>
<g>
</g>
<g>
</g>
<g>
</g>
<g>
</g>
<g>
</g>
<g>
</g>
<g>
</g>
<g>
</g>
<g>
</g>
<g>
</g>
</svg>
